<svg width="178" height="60" viewBox="0 0 178 60" fill="none" xmlns="http://www.w3.org/2000/svg">
<path d="M8.78906 44H4.28906V9.875H8.78906V44ZM15.3047 31.1094C15.3047 27.2188 16.2266 24.0938 18.0703 21.7344C19.9141 19.3594 22.3281 18.1719 25.3125 18.1719C28.2812 18.1719 30.6328 19.1875 32.3672 21.2188V8H36.7031V44H32.7188L32.5078 41.2812C30.7734 43.4062 28.3594 44.4688 25.2656 44.4688C22.3281 44.4688 19.9297 43.2656 18.0703 40.8594C16.2266 38.4531 15.3047 35.3125 15.3047 31.4375V31.1094ZM19.6406 31.6016C19.6406 34.4766 20.2344 36.7266 21.4219 38.3516C22.6094 39.9766 24.25 40.7891 26.3438 40.7891C29.0938 40.7891 31.1016 39.5547 32.3672 37.0859V25.4375C31.0703 23.0469 29.0781 21.8516 26.3906 21.8516C24.2656 21.8516 22.6094 22.6719 21.4219 24.3125C20.2344 25.9531 19.6406 28.3828 19.6406 31.6016ZM53.9766 44.4688C50.5391 44.4688 47.7422 43.3438 45.5859 41.0938C43.4297 38.8281 42.3516 35.8047 42.3516 32.0234V31.2266C42.3516 28.7109 42.8281 26.4688 43.7812 24.5C44.75 22.5156 46.0938 20.9688 47.8125 19.8594C49.5469 18.7344 51.4219 18.1719 53.4375 18.1719C56.7344 18.1719 59.2969 19.2578 61.125 21.4297C62.9531 23.6016 63.8672 26.7109 63.8672 30.7578V32.5625H46.6875C46.75 35.0625 47.4766 37.0859 48.8672 38.6328C50.2734 40.1641 52.0547 40.9297 54.2109 40.9297C55.7422 40.9297 57.0391 40.6172 58.1016 39.9922C59.1641 39.3672 60.0938 38.5391 60.8906 37.5078L63.5391 39.5703C61.4141 42.8359 58.2266 44.4688 53.9766 44.4688ZM53.4375 21.7344C51.6875 21.7344 50.2188 22.375 49.0312 23.6562C47.8438 24.9219 47.1094 26.7031 46.8281 29H59.5312V28.6719C59.4062 26.4688 58.8125 24.7656 57.75 23.5625C56.6875 22.3438 55.25 21.7344 53.4375 21.7344ZM84.5625 44C84.3125 43.5 84.1094 42.6094 83.9531 41.3281C81.9375 43.4219 79.5312 44.4688 76.7344 44.4688C74.2344 44.4688 72.1797 43.7656 70.5703 42.3594C68.9766 40.9375 68.1797 39.1406 68.1797 36.9688C68.1797 34.3281 69.1797 32.2812 71.1797 30.8281C73.1953 29.3594 76.0234 28.625 79.6641 28.625H83.8828V26.6328C83.8828 25.1172 83.4297 23.9141 82.5234 23.0234C81.6172 22.1172 80.2812 21.6641 78.5156 21.6641C76.9688 21.6641 75.6719 22.0547 74.625 22.8359C73.5781 23.6172 73.0547 24.5625 73.0547 25.6719H68.6953C68.6953 24.4062 69.1406 23.1875 70.0312 22.0156C70.9375 20.8281 72.1562 19.8906 73.6875 19.2031C75.2344 18.5156 76.9297 18.1719 78.7734 18.1719C81.6953 18.1719 83.9844 18.9062 85.6406 20.375C87.2969 21.8281 88.1562 23.8359 88.2188 26.3984V38.0703C88.2188 40.3984 88.5156 42.25 89.1094 43.625V44H84.5625ZM77.3672 40.6953C78.7266 40.6953 80.0156 40.3438 81.2344 39.6406C82.4531 38.9375 83.3359 38.0234 83.8828 36.8984V31.6953H80.4844C75.1719 31.6953 72.5156 33.25 72.5156 36.3594C72.5156 37.7188 72.9688 38.7812 73.875 39.5469C74.7812 40.3125 75.9453 40.6953 77.3672 40.6953ZM109.781 37.2734C109.781 36.1016 109.336 35.1953 108.445 34.5547C107.57 33.8984 106.031 33.3359 103.828 32.8672C101.641 32.3984 99.8984 31.8359 98.6016 31.1797C97.3203 30.5234 96.3672 29.7422 95.7422 28.8359C95.1328 27.9297 94.8281 26.8516 94.8281 25.6016C94.8281 23.5234 95.7031 21.7656 97.4531 20.3281C99.2188 18.8906 101.469 18.1719 104.203 18.1719C107.078 18.1719 109.406 18.9141 111.188 20.3984C112.984 21.8828 113.883 23.7812 113.883 26.0938H109.523C109.523 24.9062 109.016 23.8828 108 23.0234C107 22.1641 105.734 21.7344 104.203 21.7344C102.625 21.7344 101.391 22.0781 100.5 22.7656C99.6094 23.4531 99.1641 24.3516 99.1641 25.4609C99.1641 26.5078 99.5781 27.2969 100.406 27.8281C101.234 28.3594 102.727 28.8672 104.883 29.3516C107.055 29.8359 108.812 30.4141 110.156 31.0859C111.5 31.7578 112.492 32.5703 113.133 33.5234C113.789 34.4609 114.117 35.6094 114.117 36.9688C114.117 39.2344 113.211 41.0547 111.398 42.4297C109.586 43.7891 107.234 44.4688 104.344 44.4688C102.312 44.4688 100.516 44.1094 98.9531 43.3906C97.3906 42.6719 96.1641 41.6719 95.2734 40.3906C94.3984 39.0938 93.9609 37.6953 93.9609 36.1953H98.2969C98.375 37.6484 98.9531 38.8047 100.031 39.6641C101.125 40.5078 102.562 40.9297 104.344 40.9297C105.984 40.9297 107.297 40.6016 108.281 39.9453C109.281 39.2734 109.781 38.3828 109.781 37.2734Z" fill="#7C6F64"/>
<path d="M136.133 31.0859C136.133 28.6016 136.617 26.3672 137.586 24.3828C138.57 22.3984 139.93 20.8672 141.664 19.7891C143.414 18.7109 145.406 18.1719 147.641 18.1719C151.094 18.1719 153.883 19.3672 156.008 21.7578C158.148 24.1484 159.219 27.3281 159.219 31.2969V31.6016C159.219 34.0703 158.742 36.2891 157.789 38.2578C156.852 40.2109 155.5 41.7344 153.734 42.8281C151.984 43.9219 149.969 44.4688 147.688 44.4688C144.25 44.4688 141.461 43.2734 139.32 40.8828C137.195 38.4922 136.133 35.3281 136.133 31.3906V31.0859ZM140.492 31.6016C140.492 34.4141 141.141 36.6719 142.438 38.375C143.75 40.0781 145.5 40.9297 147.688 40.9297C149.891 40.9297 151.641 40.0703 152.938 38.3516C154.234 36.6172 154.883 34.1953 154.883 31.0859C154.883 28.3047 154.219 26.0547 152.891 24.3359C151.578 22.6016 149.828 21.7344 147.641 21.7344C145.5 21.7344 143.773 22.5859 142.461 24.2891C141.148 25.9922 140.492 28.4297 140.492 31.6016ZM170.539 12.5V18.6406H175.273V21.9922H170.539V37.7188C170.539 38.7344 170.75 39.5 171.172 40.0156C171.594 40.5156 172.312 40.7656 173.328 40.7656C173.828 40.7656 174.516 40.6719 175.391 40.4844V44C174.25 44.3125 173.141 44.4688 172.062 44.4688C170.125 44.4688 168.664 43.8828 167.68 42.7109C166.695 41.5391 166.203 39.875 166.203 37.7188V21.9922H161.586V18.6406H166.203V12.5H170.539Z" fill="#7C6F64"/>
<path d="M118 58.9058V45.2264C120.788 45.2263 125.853 44.4421 125.842 44.8777C125.58 54.8105 123.751 57.9472 121.747 58.5572C119.393 59.2734 118 58.9058 118 58.9058Z" fill="#C4C4C4" stroke="black" stroke-width="2"/>
<path d="M118.087 45.1357V19.2581C133.073 16.4699 140.566 37.0326 125.58 44.3515C124.02 44.9833 120.265 45.5714 118.087 45.1357Z" fill="#FABD2F" stroke="black" stroke-width="2"/>
<path d="M118.087 48.621C119.635 48.9903 122.612 48.9903 125.232 47.6055M118.087 52.4247C119.675 52.6709 122.612 52.794 125.232 51.4092M118.087 56.0304C120.111 56.215 122.804 55.9184 124.709 54.8106" stroke="black" stroke-width="2"/>
<path d="M121.694 44.5259V36.1878M121.694 36.1878V33.3766C121.694 29.3686 127.41 29.2645 127.41 32.8538C127.41 35.9033 125.833 36.1878 121.694 36.1878ZM121.694 36.1878L118.436 36.1878" stroke="black" stroke-width="2"/>
</svg>
